<svg xmlns:xlink="http://www.w3.org/1999/xlink"  width="20" height="20" viewBox="0 0 20 20" fill="none" xmlns="http://www.w3.org/2000/svg" class="icon-sm"><path d="M8.11523 3.19409C9.15589 2.15344 10.844 2.15363 11.8848 3.19409L16.8057 8.11499C17.8462 9.15575 17.8463 10.8438 16.8057 11.8845L11.8848 16.8054C10.8441 17.8461 9.156 17.846 8.11523 16.8054L3.19434 11.8845C2.15387 10.8438 2.15369 9.15564 3.19434 8.11499L8.11523 3.19409ZM7.96582 7.49976C7.78889 7.49965 7.6396 7.63263 7.61914 7.80835C7.49243 8.90693 6.87202 9.52734 5.77344 9.65405C5.59772 9.67451 5.46474 9.8238 5.46484 10.0007C5.46517 10.1777 5.59859 10.3264 5.77441 10.3464C6.85731 10.4691 7.52042 11.0831 7.61816 12.1824C7.63414 12.3623 7.78525 12.4999 7.96582 12.4998C8.14634 12.4994 8.29693 12.3613 8.3125 12.1814C8.40645 11.0979 9.06302 10.4414 10.1465 10.3474C10.3264 10.3318 10.4645 10.1813 10.4648 10.0007C10.465 9.82016 10.3273 9.66905 10.1475 9.65308C9.04822 9.55533 8.4342 8.89222 8.31152 7.80933C8.29153 7.6335 8.14276 7.50008 7.96582 7.49976Z" fill="#5856D6"></path></svg>