<svg width="70" height="70" viewBox="0 0 70 70" fill="none" xmlns="http://www.w3.org/2000/svg">
<path d="M8.75 14.5833C8.75 13.0362 9.36458 11.5525 10.4585 10.4585C11.5525 9.36458 13.0362 8.75 14.5833 8.75H55.4167C56.9638 8.75 58.4475 9.36458 59.5415 10.4585C60.6354 11.5525 61.25 13.0362 61.25 14.5833V55.4167C61.25 56.9638 60.6354 58.4475 59.5415 59.5415C58.4475 60.6354 56.9638 61.25 55.4167 61.25H14.5833C13.0362 61.25 11.5525 60.6354 10.4585 59.5415C9.36458 58.4475 8.75 56.9638 8.75 55.4167V14.5833Z" stroke="black" stroke-width="4" stroke-linecap="round" stroke-linejoin="round"/>
<path d="M40.8333 29.1667C40.8333 27.6196 40.2187 26.1359 39.1247 25.0419C38.0308 23.948 36.5471 23.3334 35 23.3334C33.4529 23.3334 31.9691 23.948 30.8752 25.0419C29.7812 26.1359 29.1666 27.6196 29.1666 29.1667V40.8334C29.1666 42.3805 29.7812 43.8642 30.8752 44.9582C31.9691 46.0521 33.4529 46.6667 35 46.6667C36.5471 46.6667 38.0308 46.0521 39.1247 44.9582C40.2187 43.8642 40.8333 42.3805 40.8333 40.8334" stroke="black" stroke-width="4" stroke-linecap="round" stroke-linejoin="round"/>
</svg>
